<?xml version="1.0" encoding="utf-8"?>
<!-- Generator: Adobe Illustrator 18.0.0, SVG Export Plug-In . SVG Version: 6.00 Build 0)  -->
<!DOCTYPE svg PUBLIC "-//W3C//DTD SVG 1.1//EN" "http://www.w3.org/Graphics/SVG/1.1/DTD/svg11.dtd">
<svg version="1.1" id="Layer_1" xmlns="http://www.w3.org/2000/svg" xmlns:xlink="http://www.w3.org/1999/xlink" x="0px" y="0px"
	 width="16px" height="16px" viewBox="0 0 16 16" enable-background="new 0 0 16 16" xml:space="preserve">
<path id="Settings_1_x2C__Gear_1" fill="#878681" d="M14,7c-0.6,0-1.1-0.4-1.3-1c-0.2-0.5-0.1-1.2,0.2-1.6l0.7-0.7
	c0.4-0.4,0.4-1,0-1.4c-0.4-0.4-1-0.4-1.4,0c0,0-0.3,0.3-0.7,0.7s-1.1,0.5-1.6,0.2C9.4,3.1,9,2.6,9,2V1c0-0.6-0.4-1-1-1S7,0.4,7,1v1
	C7,2.6,6.6,3.1,6,3.3S4.9,3.4,4.5,3.1L3.8,2.3C3.4,2,2.7,2,2.3,2.3C2,2.7,2,3.4,2.3,3.8l0.7,0.7c0.4,0.4,0.5,1.1,0.3,1.6
	C3.2,6.6,2.6,7,2.1,7L1,7C0.4,7,0,7.4,0,8c0,0.6,0.4,1,1,1h1c0.6,0,1.1,0.4,1.3,0.9c0.2,0.5,0.2,1.2-0.2,1.5l-0.8,0.8
	c-0.4,0.4-0.4,1,0,1.4c0.4,0.4,1,0.4,1.4,0l0.7-0.7c0.4-0.4,1.1-0.5,1.6-0.2C6.6,12.9,7,13.4,7,14v1c0,0.6,0.4,1,1,1
	c0.6,0,1-0.4,1-1v-1c0-0.6,0.4-1.1,1-1.3c0.5-0.2,1.2-0.1,1.6,0.2l0.7,0.7c0.4,0.4,1,0.4,1.4,0c0.4-0.4,0.4-1,0-1.4l-0.7-0.7
	c-0.4-0.4-0.5-1.1-0.2-1.6s0.7-1,1.3-1h1c0.6,0,1-0.4,1-1s-0.4-1-1-1H14z M8,10c-1.1,0-2-0.9-2-2s0.9-2,2-2s2,0.9,2,2S9.1,10,8,10z"
	/>
</svg>
